<?xml version="1.0" encoding="UTF-8" standalone="no"?>
<!-- Created with Inkscape (http://www.inkscape.org/) -->

<svg
   xmlns:dc="http://purl.org/dc/elements/1.1/"
   xmlns:cc="http://creativecommons.org/ns#"
   xmlns:rdf="http://www.w3.org/1999/02/22-rdf-syntax-ns#"
   xmlns:svg="http://www.w3.org/2000/svg"
   xmlns="http://www.w3.org/2000/svg"
   xmlns:sodipodi="http://sodipodi.sourceforge.net/DTD/sodipodi-0.dtd"
   xmlns:inkscape="http://www.inkscape.org/namespaces/inkscape"
   version="1.1"
   id="svg2"
   width="256"
   height="256"
   viewBox="0 0 256 256"
   sodipodi:docname="icon.svg"
   inkscape:version="0.92.5 (2060ec1f9f, 2020-04-08)">
  <metadata
     id="metadata8">
    <rdf:RDF>
      <cc:Work
         rdf:about="">
        <dc:format>image/svg+xml</dc:format>
        <dc:type
           rdf:resource="http://purl.org/dc/dcmitype/StillImage" />
        <dc:title></dc:title>
      </cc:Work>
    </rdf:RDF>
  </metadata>
  <defs
     id="defs6" />
  <sodipodi:namedview
     pagecolor="#ffffff"
     bordercolor="#666666"
     borderopacity="1"
     objecttolerance="10"
     gridtolerance="10"
     guidetolerance="10"
     inkscape:pageopacity="0"
     inkscape:pageshadow="2"
     inkscape:window-width="1920"
     inkscape:window-height="1012"
     id="namedview4"
     showgrid="false"
     inkscape:zoom="1.3037281"
     inkscape:cx="149.69492"
     inkscape:cy="129.08475"
     inkscape:window-x="0"
     inkscape:window-y="0"
     inkscape:window-maximized="1"
     inkscape:current-layer="svg2" />
  <path
     style="fill:#2a6099;fill-opacity:1"
     d="m 56.786578,255.97196 c -11.28455,-3.03678 -22.04878,-12.50567 -26.36379,-23.19123 l -2.3206,-5.74666 v -97.5 -97.500008 l 2.3206,-5.746659 c 2.70575,-6.70043 10.31777,-15.472313 16.6434,-19.1793749 9.37999,-5.49704 11.58415,-5.6664303 69.714192,-5.3575446 l 53.36743,0.2835787 6.47719,3.1956104 c 5.5311,2.7288432 10.06708,6.8186664 31.05454,27.9999994 17.9479,18.113696 25.23084,26.153082 27,29.80439 l 2.42265,5 v 79.500008 79.5 l -2.3206,5.74666 c -2.70174,6.69051 -10.31551,15.47099 -16.61802,19.1645 -9.50064,5.56775 -9.91788,5.59454 -86.02148,5.52303 -57.444822,-0.054 -70.995792,-0.32305 -75.355512,-1.4963 z M 205.37066,235.98634 c 4.71458,-1.96988 7.92317,-4.97144 10.32885,-9.66243 1.82038,-3.54967 1.90268,-6.95618 1.90268,-78.75 V 72.534062 H 202.18956 186.77693 L 180.485,69.276929 C 168.31703,62.977963 164.60219,54.809485 164.60219,34.352561 V 21.534062 h -50.53212 c -43.347782,0 -51.058762,0.220046 -54.236352,1.547728 -4.71459,1.969879 -7.92317,4.971447 -10.32885,9.662434 -1.83004,3.568516 -1.90268,7.263744 -1.90268,96.789846 0,89.52609 0.0726,93.22132 1.90268,96.78984 2.35825,4.59851 5.56115,7.64694 10.10446,9.61718 5.32223,2.30801 140.245522,2.3499 145.761332,0.0453 z M 74.990308,199.56658 c -5.49208,-2.25177 -8.47852,-9.9324 -5.94112,-15.27957 3.3195,-6.99535 1.03816,-6.75294 63.553002,-6.75294 62.60948,0 60.22674,-0.25663 63.59903,6.84993 2.02223,4.26154 0.76309,9.52153 -3.16223,13.20996 l -2.59683,2.44011 -56.66998,0.1992 c -31.1685,0.10955 -57.620342,-0.19045 -58.781872,-0.66669 z m 0,-51 c -5.49208,-2.25177 -8.47852,-9.9324 -5.94112,-15.27957 3.3195,-6.99535 1.03816,-6.75294 63.553002,-6.75294 62.60948,0 60.22674,-0.25663 63.59903,6.84993 2.02223,4.26154 0.76309,9.52153 -3.16223,13.20996 l -2.59683,2.44011 -56.66998,0.1992 c -31.1685,0.10955 -57.620342,-0.19045 -58.781872,-0.66669 z m 0,-51.012587 c -5.48219,-2.215053 -8.4796,-9.91755 -5.94112,-15.266995 3.17501,-6.690834 3.416517,-6.48175 40.871362,-6.48175 36.9343,0 38.16098,-0.112498 41.16471,5.696081 2.96891,5.741242 0.96915,12.713279 -4.45034,15.515806 -2.45753,1.270842 -8.33548,1.099864 -36.23307,1.046761 -18.314812,-0.03486 -34.250012,-0.04059 -35.411542,-0.509903 z"
     id="path817"
     inkscape:connector-curvature="0"
     sodipodi:nodetypes="cscccssscssccccscsccsscccsscssssccccccscscscccscscsccssscsc" />
</svg>
